<?xml version="1.0" standalone="no"?>
<!DOCTYPE svg PUBLIC "-//W3C//DTD SVG 1.1//EN"
	"http://www.w3.org/Graphics/SVG/1.1/DTD/svg11.dtd">
<svg xmlns="http://www.w3.org/2000/svg" version="1.1"
	xmlns:xlink="http://www.w3.org/1999/xlink"
	color="black"
	width="701.60px" height="94.30px">
<style type="text/css">
.fill {fill: currentColor}
.stroke {stroke: currentColor; fill: none}
text{white-space: pre}
</style>
<title>test.abc (1) tune 1</title>
<!-- Creator: abcm2ps-8.14.7 -->
<!-- CreationDate: Apr 30, 2020 20:47 -->
<!-- CommandLine: test.abc -g -O example.svg -->
<g stroke-width="0.70">
<path d="m10.00 59.00
	h681.60
	M10.00 53.00
	h681.60
	M10.00 47.00
	h681.60
	M10.00 41.00
	h681.60
	M10.00 35.00
	h681.60
	" class="stroke"/>
</g>
<g stroke-width="0.70" style="font:bold 13.00px Times">
<text x="41.30" y="90.10">a</text>
<text x="92.70" y="90.10">a♯</text>
<text x="148.60" y="90.10">b</text>
<text x="202.60" y="90.10">c</text>
<text x="254.00" y="90.10">c♯</text>
<text x="309.80" y="90.10">d</text>
<text x="361.20" y="90.10">d♯</text>
<text x="417.70" y="90.10">e</text>
<text x="472.00" y="90.10">f</text>
<text x="523.40" y="90.10">f♯</text>
<text x="578.60" y="90.10">g</text>
<text x="630.00" y="90.10">g♯</text>
<defs>
<path id="utclef" class="fill" d="m-50 -90
	c-72 -41 -72 -158 52 -188
	150 -10 220 188 90 256
	-114 52 -275 0 -293 -136
	-15 -181 93 -229 220 -334
	88 -87 79 -133 62 -210
	-51 33 -94 105 -89 186
	17 267 36 374 49 574
	6 96 -19 134 -77 135
	-80 1 -126 -93 -61 -133
	85 -41 133 101 31 105
	23 17 92 37 90 -92
	-10 -223 -39 -342 -50 -617
	0 -90 0 -162 96 -232
	56 72 63 230 22 289
	-74 106 -257 168 -255 316
	9 153 148 185 252 133
	86 -65 29 -192 -80 -176
	-71 12 -105 67 -59 124"/>
<use id="tclef" transform="translate(0,6) scale(0.045)"
	xlink:href="#utclef"/>
</defs>
<use x="22.00" y="53.00" xlink:href="#tclef"/>
<defs>
<path id="hl" class="stroke" d="m-6 0h12"/>
</defs>
<use x="46.50" y="65.00" xlink:href="#hl"/>
<use x="46.50" y="71.00" xlink:href="#hl"/>
<defs>
<ellipse id="hd" rx="4.1" ry="2.9"
	transform="rotate(-20)" class="fill"/>
</defs>
<use x="46.50" y="71.00" xlink:href="#hd"/>
<path d="M50.00 71.00v-24.00" class="stroke"/>
<use x="100.30" y="65.00" xlink:href="#hl"/>
<use x="100.30" y="71.00" xlink:href="#hl"/>
<use x="100.30" y="71.00" xlink:href="#hd"/>
<defs>
<path id="usharp" class="fill" d="
	m136 -702
	v890
	h32
	v-890
	m128 840
	h32
	v-888
	h-32
	m-232 286
	v116
	l338 -96
	v-116
	m-338 442
	v116
	l338 -98
	v-114"/>
<use id="sh0" transform="translate(-4,5) scale(0.018)"
	xlink:href="#usharp"/>
</defs>
<use x="91.30" y="71.00" xlink:href="#sh0"/>
<path d="M103.80 71.00v-24.00" class="stroke"/>
<use x="154.00" y="65.00" xlink:href="#hl"/>
<use x="154.00" y="68.00" xlink:href="#hd"/>
<path d="M157.50 68.00v-21.00" class="stroke"/>
<use x="207.80" y="65.00" xlink:href="#hl"/>
<use x="207.80" y="65.00" xlink:href="#hd"/>
<path d="M211.30 65.00v-21.00" class="stroke"/>
<use x="261.50" y="65.00" xlink:href="#hl"/>
<use x="261.50" y="65.00" xlink:href="#hd"/>
<use x="252.50" y="65.00" xlink:href="#sh0"/>
<path d="M265.00 65.00v-21.00" class="stroke"/>
<use x="315.30" y="62.00" xlink:href="#hd"/>
<path d="M318.80 62.00v-21.00" class="stroke"/>
<use x="369.00" y="62.00" xlink:href="#hd"/>
<use x="360.00" y="62.00" xlink:href="#sh0"/>
<path d="M372.50 62.00v-21.00" class="stroke"/>
<use x="422.80" y="59.00" xlink:href="#hd"/>
<path d="M426.30 59.00v-21.00" class="stroke"/>
<use x="476.60" y="56.00" xlink:href="#hd"/>
<path d="M480.10 56.00v-21.00" class="stroke"/>
<use x="530.30" y="56.00" xlink:href="#hd"/>
<use x="521.30" y="56.00" xlink:href="#sh0"/>
<path d="M533.80 56.00v-21.00" class="stroke"/>
<use x="584.10" y="53.00" xlink:href="#hd"/>
<path d="M587.60 53.00v-21.00" class="stroke"/>
<use x="637.80" y="53.00" xlink:href="#hd"/>
<use x="628.80" y="53.00" xlink:href="#sh0"/>
<path d="M641.30 53.00v-21.00" class="stroke"/>
</g>
</svg>
