<?xml version="1.0" standalone="no"?>
<!DOCTYPE svg PUBLIC "-//W3C//DTD SVG 1.1//EN"
	"http://www.w3.org/Graphics/SVG/1.1/DTD/svg11.dtd">
<svg xmlns="http://www.w3.org/2000/svg" version="1.1"
	xmlns:xlink="http://www.w3.org/1999/xlink"
	color="black"
	width="701.60px" height="109.30px">
<style type="text/css">
.fill {fill: currentColor}
.stroke {stroke: currentColor; fill: none}
text{white-space: pre}
</style>
<title>example.abc (1) tune 1</title>
<!-- Creator: abcm2ps-8.14.7 -->
<!-- CreationDate: May  1, 2020 09:49 -->
<!-- CommandLine: example.abc -g -O example.svg -->
<g stroke-width="0.70">
<path class="stroke" stroke-width="1"
	d="M120.50 73.00v-24.00"/>
<path class="stroke" stroke-width="1"
	d="M213.20 73.00v-24.00"/>
<path class="stroke" stroke-width="1"
	d="M305.90 73.00v-24.00"/>
<path d="m10.00 73.00
	h295.90
	M10.00 67.00
	h295.90
	M10.00 61.00
	h295.90
	M10.00 55.00
	h295.90
	M10.00 49.00
	h295.90
	" class="stroke"/>
</g>
<g stroke-width="0.70" style="font:12.00px Helvetica">
<text x="44.50" y="23.60">Root position</text>
<text x="137.20" y="23.60">First inversion</text>
<text x="229.90" y="23.60">Second inversion</text>
</g>
<g stroke-width="0.70" style="font:bold 13.00px Times">
<text x="35.80" y="105.10">closed</text>
<text x="79.20" y="105.10">open</text>
<text x="128.50" y="105.10">closed</text>
<text x="171.80" y="105.10">open</text>
<text x="221.20" y="105.10">closed</text>
<text x="264.50" y="105.10">open</text>
<defs>
<path id="utclef" class="fill" d="m-50 -90
	c-72 -41 -72 -158 52 -188
	150 -10 220 188 90 256
	-114 52 -275 0 -293 -136
	-15 -181 93 -229 220 -334
	88 -87 79 -133 62 -210
	-51 33 -94 105 -89 186
	17 267 36 374 49 574
	6 96 -19 134 -77 135
	-80 1 -126 -93 -61 -133
	85 -41 133 101 31 105
	23 17 92 37 90 -92
	-10 -223 -39 -342 -50 -617
	0 -90 0 -162 96 -232
	56 72 63 230 22 289
	-74 106 -257 168 -255 316
	9 153 148 185 252 133
	86 -65 29 -192 -80 -176
	-71 12 -105 67 -59 124"/>
<use id="tclef" transform="translate(0,6) scale(0.045)"
	xlink:href="#utclef"/>
</defs>
<use x="22.00" y="67.00" xlink:href="#tclef"/>
<defs>
<ellipse id="hd" rx="4.1" ry="2.9"
	transform="rotate(-20)" class="fill"/>
</defs>
<use x="52.50" y="76.00" xlink:href="#hd"/>
<path d="M56.00 76.00v-31.00" class="stroke"/>
<use x="52.50" y="70.00" xlink:href="#hd"/>
<defs>
<path id="usharp" class="fill" d="
	m136 -702
	v890
	h32
	v-890
	m128 840
	h32
	v-888
	h-32
	m-232 286
	v116
	l338 -96
	v-116
	m-338 442
	v116
	l338 -98
	v-114"/>
<use id="sh0" transform="translate(-4,5) scale(0.018)"
	xlink:href="#usharp"/>
</defs>
<use x="43.50" y="70.00" xlink:href="#sh0"/>
<use x="52.50" y="64.00" xlink:href="#hd"/>
<use x="92.50" y="76.00" xlink:href="#hd"/>
<path d="M96.00 76.00v-46.00" class="stroke"/>
<use x="92.50" y="64.00" xlink:href="#hd"/>
<use x="92.50" y="49.00" xlink:href="#hd"/>
<use x="83.50" y="49.00" xlink:href="#sh0"/>
<use x="145.20" y="70.00" xlink:href="#hd"/>
<use x="136.20" y="70.00" xlink:href="#sh0"/>
<path d="M148.70 70.00v-34.00" class="stroke"/>
<use x="145.20" y="64.00" xlink:href="#hd"/>
<use x="145.20" y="55.00" xlink:href="#hd"/>
<defs>
<path id="hl" class="stroke" d="m-6 0h12"/>
</defs>
<use x="185.20" y="43.00" xlink:href="#hl"/>
<use x="185.20" y="43.00" xlink:href="#hd"/>
<path d="M181.70 43.00v46.00" class="stroke"/>
<use x="185.20" y="70.00" xlink:href="#hd"/>
<use x="176.20" y="70.00" xlink:href="#sh0"/>
<use x="185.20" y="55.00" xlink:href="#hd"/>
<use x="237.90" y="49.00" xlink:href="#hd"/>
<use x="228.90" y="49.00" xlink:href="#sh0"/>
<path d="M234.40 49.00v34.00" class="stroke"/>
<use x="237.90" y="64.00" xlink:href="#hd"/>
<use x="237.90" y="55.00" xlink:href="#hd"/>
<use x="277.90" y="43.00" xlink:href="#hl"/>
<use x="277.90" y="37.00" xlink:href="#hl"/>
<use x="277.90" y="34.00" xlink:href="#hd"/>
<path d="M274.40 34.00v49.00" class="stroke"/>
<use x="277.90" y="64.00" xlink:href="#hd"/>
<use x="277.90" y="49.00" xlink:href="#hd"/>
<use x="268.90" y="49.00" xlink:href="#sh0"/>
</g>
</svg>
